<svg width="162" height="49" viewBox="0 0 162 49" fill="none" xmlns="http://www.w3.org/2000/svg">
<path fill-rule="evenodd" clip-rule="evenodd" d="M49.8134 11.2616C49.8134 5.31812 54.6315 0.5 60.5749 0.5H101.425C107.368 0.5 112.187 5.31812 112.187 11.2616C112.187 17.205 107.368 22.0231 101.425 22.0231H85.4533C84.0854 22.0231 82.9765 23.1321 82.9765 24.5C82.9765 25.8679 84.0854 26.9769 85.4533 26.9769H150.621C156.564 26.9769 161.382 31.795 161.382 37.7384C161.382 43.6819 156.564 48.5 150.621 48.5H11.3792C5.43579 48.5 0.617676 43.6819 0.617676 37.7384C0.617676 31.795 5.43579 26.9769 11.3792 26.9769H76.5464C77.9143 26.9769 79.0232 25.8679 79.0232 24.5C79.0232 23.1321 77.9143 22.0231 76.5464 22.0231H60.5749C54.6315 22.0231 49.8134 17.205 49.8134 11.2616ZM64.9868 41.8854C64.2327 41.8854 63.6429 41.7794 63.2188 41.5647C62.7934 41.3513 62.4965 41.0319 62.3268 40.6038C62.1572 40.177 62.0724 39.6495 62.0724 39.0187V35.4495C62.0724 34.425 62.3003 33.6695 62.7576 33.1844C63.2135 32.6994 63.957 32.4555 64.9881 32.4555H69.7819C70.5149 32.4555 71.0742 32.4953 71.4625 32.5761C71.8495 32.6556 72.0443 32.7391 72.0443 32.824L71.7262 34.152C71.546 34.1201 71.0119 34.0857 70.1252 34.0473C69.2385 34.0101 67.9516 33.9916 66.2631 33.9916H65.4507C64.6011 33.9916 64.177 34.3706 64.177 35.1287V39.2108C64.177 39.574 64.2698 39.8536 64.4553 40.0511C64.6409 40.2486 64.9736 40.3467 65.4507 40.3467H66.1041C67.8668 40.3467 69.2346 40.3281 70.2061 40.291C71.1775 40.2539 71.7806 40.2141 72.0138 40.1704L72.6672 41.2267C72.6672 41.2797 72.5798 41.3605 72.4048 41.4666C72.2299 41.5739 71.9078 41.6694 71.4413 41.7542C70.9734 41.839 70.3002 41.8827 69.4188 41.8827H64.9908L64.9868 41.8854ZM29.4676 41.8853V33.7543L29.3085 32.4581H36.3647C37.0446 32.4581 37.5774 32.5495 37.9657 32.7298C38.3528 32.9114 38.6404 33.1486 38.8259 33.4415C39.0115 33.7357 39.1307 34.0472 39.1837 34.3785C39.2368 34.7099 39.2633 35.024 39.2633 35.3235V36.2685C39.2633 36.5137 39.2262 36.7893 39.1519 37.0928C39.0777 37.3963 38.9399 37.6906 38.7384 37.9729C38.537 38.2552 38.2441 38.4911 37.8624 38.6766C37.4807 38.8635 36.981 38.9563 36.3647 38.9563H34.7398C34.0705 38.9563 33.4463 38.9404 32.8684 38.9086C32.2893 38.8768 31.8572 38.8503 31.5709 38.8291V41.8866H29.4689L29.4676 41.8853ZM31.5696 37.4189H35.9022C36.3806 37.4189 36.7093 37.3009 36.8896 37.0663C37.0698 36.8317 37.1599 36.5494 37.1599 36.2181V35.2095C37.1599 34.8676 37.0698 34.58 36.8896 34.3454C36.7093 34.1108 36.3846 33.9928 35.9181 33.9928H31.5696V37.4189ZM14.2711 41.8853C13.5488 41.8853 13.0186 41.8534 12.678 41.7898C12.3387 41.7262 12.1677 41.6507 12.1677 41.5658L12.8052 40.1729C13.0491 40.2153 13.6574 40.2551 14.6289 40.2935C15.6004 40.3306 16.9364 40.3492 18.6355 40.3492H18.9376C19.3936 40.3492 19.7183 40.267 19.9091 40.1013C20.1 39.9357 20.1954 39.656 20.1954 39.2611V38.9403C20.1954 38.5666 20.1185 38.3002 19.9648 38.1398C19.811 37.9794 19.4678 37.8999 18.9376 37.8999H15.2426C14.1704 37.8999 13.3897 37.6998 12.9007 37.2995C12.4116 36.8993 12.1677 36.2459 12.1677 35.338V35.0822C12.1677 34.613 12.2552 34.181 12.4302 33.786C12.6051 33.3911 12.9046 33.0743 13.3301 32.8331C13.7542 32.5932 14.3387 32.4726 15.0822 32.4726H19.4148C20.1371 32.4726 20.7202 32.5097 21.1669 32.5853C21.6135 32.6595 21.8362 32.7403 21.8362 32.8251L21.5181 34.1704C21.2424 34.1386 20.6155 34.1041 19.6388 34.0657C18.662 34.0286 17.3499 34.01 15.7038 34.01L15.5288 33.9941C15.0398 33.9941 14.7111 34.0935 14.5414 34.2897C14.3718 34.4871 14.2804 34.735 14.2711 35.0345V35.3062C14.2711 35.6587 14.3692 35.9225 14.5653 36.0988C14.7615 36.275 15.0888 36.3625 15.5447 36.3625H19.0808C19.7607 36.3625 20.3399 36.4314 20.817 36.5706C21.2954 36.7098 21.6612 36.9629 21.9157 37.3313C22.1702 37.6998 22.2974 38.2419 22.2974 38.9562V39.212C22.2974 40.0125 22.0933 40.658 21.6838 41.1484C21.2742 41.6387 20.5665 41.8853 19.5579 41.8853H14.2711ZM48.7076 32.4726L44.0411 41.8853H46.3658L47.4009 39.8522H53.1039L54.0435 41.8853H56.4967L51.8461 32.4726H48.7076ZM52.5154 38.2843H47.9774L50.1748 33.9146H50.3339L52.5154 38.2843ZM79.0358 32.4726V41.8852H87.7328C88.4339 41.8852 88.9283 41.8667 89.2145 41.8296C89.5008 41.7911 89.6439 41.7514 89.6439 41.709L89.0064 40.3478H81.1378V37.8031H87.0953V36.218H81.1378V34.0087H88.9428V32.4726H79.0358ZM99.217 41.8853L99.2011 33.9942H95.0594V32.4581H105.477V33.9942H101.319V41.8853H99.217ZM111.848 32.4726V41.8853H113.95V32.4726H111.848ZM121.437 41.8854V33.7544L121.278 32.4741H123.699L127.299 38.8768L131.026 32.4741H133.175V41.8867H131.073V35.916H130.898L130.277 37.309L128.27 40.9272H126.343L124.337 37.309L123.699 35.916H123.54V41.8867H121.438L121.437 41.8854ZM140.503 32.4726V41.8853H149.2C149.901 41.8853 150.395 41.8667 150.682 41.8296C150.968 41.7912 151.111 41.7514 151.111 41.709L150.474 40.3478H142.605V37.8032H148.562V36.218H142.605V34.0087H150.41V32.4726H140.503ZM64.3925 8.23253V10.5086V10.5099L61.3577 11.7353L64.3925 12.9668V15.2454L58.4719 12.9069H58.4597V10.5722H58.4719L64.3925 8.23253ZM98.885 15.1244V12.8496L101.917 11.6254L98.885 10.4012V8.12505L104.797 10.4623H104.812V12.7995H104.797L98.885 15.1244ZM96.3463 4.90819L92.8692 16.7628H94.9339L98.411 4.90819H96.3463ZM73.9529 10.3194C73.9895 9.39207 73.6804 8.48797 73.0928 7.80257H73.094C72.8032 7.47881 72.4501 7.22469 72.0592 7.05731C71.6682 6.88993 71.2491 6.81418 70.8276 6.83251C70.3756 6.81174 69.9248 6.88993 69.502 7.06097C69.0793 7.23202 68.6933 7.49347 68.3695 7.82823V7.0793H66.3047V15.3689H68.3695V11.6975C68.3695 9.7928 69.0158 8.84106 70.3084 8.84106C70.5247 8.83129 70.7409 8.87405 70.94 8.96568C71.138 9.05731 71.3151 9.19659 71.4568 9.3713C71.7586 9.77081 71.9126 10.2729 71.8881 10.7836V15.3689H73.9529V10.3194ZM76.5808 3.63154V15.4862H78.6455V3.63154H76.5808ZM88.5894 15.0513H90.3109L93.2076 6.74707H91.0011L89.375 11.7294L87.7 6.74707H86.0897L84.4147 11.7135L82.7885 6.74707H80.5821L83.4764 15.0513H85.1966L86.9009 10.168L88.5894 15.0513Z" fill="url(#paint0_linear_352_94)"/>
<defs>
<linearGradient id="paint0_linear_352_94" x1="37.8561" y1="-4.88078" x2="176.902" y2="79.6744" gradientUnits="userSpaceOnUse">
<stop offset="0.251308" stop-color="#996DFF"/>
<stop offset="0.623787" stop-color="#FF876E"/>
<stop offset="1" stop-color="#FFD072"/>
</linearGradient>
</defs>
</svg>
